# xmcd CD database file
#
# Track frame offsets:
#	150
#	9782
#	29637
#	51907
#	66630
#	84047
#	101742
#	112762
#	139852
#	155955
#	170017
#	191260
#	212015
#
# Disc length: 3122 seconds
#
# Revision: 0
# Processed by: cddbd v1.5PL3 Copyright (c) Steve Scherf et al.
# Submitted via: CDex 1.50Beta7
#
DISCID=af0c300d
DTITLE=Jimmie Lee Robinson - Remember Me
DYEAR=1998
DGENRE=Blues
TTITLE0=My Name Is Jimmie Lee
TTITLE1=Boss Man
TTITLE2=Wagon Wheels
TTITLE3=See See Baby
TTITLE4=Wait For Me
TTITLE5=Keys To The Highway
TTITLE6=Rosa Lee
TTITLE7=The Boll Weevil
TTITLE8=Angry Lover
TTITLE9=Three O'Clock In The Morning
TTITLE10=I Will Be Your Dog
TTITLE11=Rollin' and Tumblin'
TTITLE12=Remember Me
EXTD=YEAR: 1998
EXTT0=
EXTT1=
EXTT2=
EXTT3=
EXTT4=
EXTT5=
EXTT6=
EXTT7=
EXTT8=
EXTT9=
EXTT10=
EXTT11=
EXTT12=
PLAYORDER=
